<?xml version="1.0" standalone="no"?><!DOCTYPE svg PUBLIC "-//W3C//DTD SVG 1.1//EN" "http://www.w3.org/Graphics/SVG/1.1/DTD/svg11.dtd"><svg t="1681562525166" class="icon" viewBox="0 0 1024 1024" version="1.1" xmlns="http://www.w3.org/2000/svg" p-id="1129" xmlns:xlink="http://www.w3.org/1999/xlink" width="200" height="200"><path d="M389.577143 565.632l-3.382857 7.405714c-2.998857 6.528 0.566857 14.592 7.936 17.956571 7.369143 3.382857 15.762286 0.786286 18.779429-5.741714l3.364571-7.387429c2.998857-6.528-0.548571-14.555429-7.936-17.938286C400.987429 556.544 392.576 559.085714 389.577143 565.632zM492.672 805.229714l0.347429 8.118857c0.274286 7.186286 7.113143 12.745143 15.195429 12.416 8.118857-0.310857 14.409143-6.418286 14.134857-13.604571l-0.347429-8.100571c-0.292571-7.204571-7.094857-12.745143-15.195429-12.434286S492.379429 798.043429 492.672 805.229714zM593.261714 579.968l3.072 7.533714c2.724571 6.637714 11.044571 9.563429 18.523429 6.491429 7.533714-3.090286 11.355429-10.953143 8.685714-17.627429l-3.090286-7.497143c-2.742857-6.674286-11.026286-9.563429-18.541714-6.491429C594.450286 565.412571 590.537143 573.312 593.261714 579.968zM745.874286 693.467429l-1.572571-4.260571c-2.816-7.588571 1.152-16.128 8.886857-19.017143 7.862857-2.907429 16.420571 0.950857 19.254857 8.539429l1.572571 4.260571c2.870857 7.625143-1.133714 16.219429-8.941714 19.108571C757.321143 704.987429 748.708571 701.110857 745.874286 693.467429zM786.706286 705.737143c-11.337143-7.497143-18.157714-0.347429-18.157714-0.347429-4.882286 1.92-8.374857 13.275429-8.374857 13.275429l10.825143 18.852571c-21.796571 0.859429-35.785143 35.254857-35.785143 35.254857-24.448 64.237714-67.913143 35.785143-67.913143 35.785143-69.138286-46.262857-114.523429 15.195429-114.523429 15.195429-23.570286 34.925714-85.028571 10.477714-85.028571 10.477714-55.68-60.580571-97.408-40.685714-97.408-40.685714-70.857143 45.385143-87.808-1.042286-87.808-1.042286-9.435429-32.128-46.445714-53.961143-46.445714-53.961143l173.184-317.019429 194.486857 0 129.353143 243.181714c12.050286 8.557714 21.284571 2.285714 21.284571 2.285714 8.576-6.107429 2.980571-19.547429 2.980571-19.547429l-126.921143-235.849143c57.782857-72.795429-1.206857-158.153143-1.206857-158.153143L629.248 173.988571c-0.676571-6.272-13.604571-8.557714-13.604571-8.557714-13.110857-2.267429-18.852571 10.130286-18.852571 10.130286l0 72.795429c-95.506286 45.385143-184.722286 1.572571-184.722286 1.572571L412.068571 175.213714c0-9.782857-16.768-9.782857-16.768-9.782857-9.947429 0-15.707429 8.557714-15.707429 8.557714l1.225143 77.513143c-50.980571 58.660571-10.806857 146.816-0.859429 166.198857L199.094857 748.873143c27.410286 9.435429 47.305143 32.292571 47.305143 32.292571 44.525714 107.190857 125.696 42.258286 125.696 42.258286 17.974857-11.702857 38.747429 1.92 38.747429 1.92 97.426286 101.083429 178.779429 5.76 178.779429 5.76 18.852571-19.017143 47.122286-6.619429 47.122286-6.619429 81.005714 54.802286 111.542857-15.195429 111.542857-15.195429 10.843429-35.620571 59.556571-61.44 59.556571-61.44L786.706286 705.737143zM394.971429 278.564571c112.073143 41.892571 216.996571 0.694857 216.996571 0.694857 39.113143 61.787429-3.474286 114.523429-3.474286 114.523429L401.426286 393.782857C359.533714 330.752 394.971429 278.564571 394.971429 278.564571zM325.942857 793.764571c-1.554286 3.84-12.178286 4.425143-18.779429 1.755429l0 0c-6.582857-2.651429-10.660571-7.936-9.124571-11.776l75.794286-187.684571c1.554286-3.84 8.155429-4.809143 14.738286-2.157714l0 0c6.582857 2.669714 14.701714 8.32 13.147429 12.16L325.942857 793.764571zM707.565714 788.370286c1.444571 3.876571-2.724571 9.051429-9.398857 11.556571l0 0c-6.637714 2.505143-16.566857 1.682286-18.029714-2.194286L608.548571 608.402286c-1.444571-3.876571 6.125714-9.325714 12.745143-11.849143l0 0c6.637714-2.505143 13.220571-1.426286 14.683429 2.468571L707.565714 788.370286zM521.947429 780.013714c0 4.132571-5.741714 7.497143-12.854857 7.515429l0 0c-7.113143 0-15.506286-3.364571-15.506286-7.497143l-0.475429-258.596571c0-4.132571 8.374857-7.515429 15.488-7.515429l0 0c7.094857 0 12.854857 3.346286 12.854857 7.497143L521.947429 780.013714z" fill="#272636" p-id="1130"></path></svg>