<svg t="1679738971783" class="icon" viewBox="0 0 1024 1024" version="1.1" xmlns="http://www.w3.org/2000/svg" p-id="17320" width="200" height="200"><path d="M961.28 414.464v508.928c0 55.104-42.752 99.52-95.872 99.52H158.016c-52.928 0-95.872-44.48-95.872-99.392V100.224c0-54.784 43.072-99.392 95.552-99.392h406.016v348.544c0 35.904 28.16 65.088 62.528 65.088h335.04z m-17.472-64.96L626.176 19.008v330.368c0-0.064 0.128 0.128 0.064 0.128h317.568z m-723.52 64.96h208.128c17.28 0 31.232-14.592 31.232-32.512s-13.952-32.448-31.232-32.448H220.288c-17.216 0-31.168 14.528-31.168 32.448s13.952 32.512 31.168 32.512z m0 216.512h582.784c17.216 0 31.232-14.528 31.232-32.448 0-17.984-14.016-32.512-31.232-32.512H220.288c-17.216 0-31.168 14.528-31.168 32.512 0 17.92 13.952 32.448 31.168 32.448z" p-id="17321"></path></svg>