<svg t="1679737949858" class="icon" viewBox="0 0 1024 1024" version="1.1" xmlns="http://www.w3.org/2000/svg" p-id="12923" width="200" height="200"><path d="M971.52 344.149333v-2.090666c0-2.090667-0.938667-4.181333-1.92-6.272l-63.573333-219.861334C891.392 70.912 852.266667 42.666667 802.389333 42.666667H223.573333c-48.896 0-86.058667 27.221333-99.754666 71.168l-70.4 225.109333c0 1.024-0.981333 3.114667-0.981334 5.205333C45.653333 365.056 42.666667 387.072 42.666667 409.045333c0 76.416 20.522667 138.197333 84.053333 173.781334 25.472 14.677333 56.746667 23.04 90.965333 23.04 57.685333 0 111.488-27.221333 147.626667-73.258667C401.493333 578.688 454.357333 605.866667 512 605.866667c56.746667 0 110.506667-27.221333 145.706667-73.258667 36.138667 46.08 89.941333 73.258667 147.626666 73.258667 35.2 0 66.474667-8.362667 92.885334-23.04C960.853333 545.152 981.333333 484.437333 981.333333 408.021333c0-21.973333-2.944-43.946667-9.813333-63.872z m-32.853333 334.08c0-20.992-15.872-37.76-35.669334-37.76-3.968 0-6.954667 1.066667-9.941333 2.133334a210.346667 210.346667 0 0 1-85.205333 15.701333c-56.490667-3.157333-99.114667-14.677333-140.757334-52.437333a225.194667 225.194667 0 0 1-147.626666 58.752c-55.552 0-108.074667-15.786667-148.693334-52.48-41.642667 36.693333-94.165333 55.594667-149.674666 55.594666-33.706667 0-53.504-7.338667-84.224-18.858666-0.981333 0-2.005333-1.066667-2.986667-1.066667-1.962667-1.024-3.968-1.024-4.949333-2.090667 0 0-4.949333-1.024-7.936-1.024-19.797333 0-35.669333 16.768-35.669334 37.717334v202.453333C85.333333 938.325333 125.952 981.333333 176.512 981.333333h670.976C898.048 981.333333 938.666667 937.301333 938.666667 884.864v-206.634667z" p-id="12924"></path></svg>